<?xml version="1.0" encoding="UTF-8"?>
<svg width="100pt" height="100pt" version="1.1" viewBox="0 0 100 100" xmlns="http://www.w3.org/2000/svg">
 <g>
  <path d="m39.09 67.578c-0.14844 0-0.14844-0.23047 0-0.23047 0.48828 0 0.98828 0.011719 1.4688 0.16016 0.14062 0.039063 0.078125 0.26172-0.058594 0.22266-0.46094-0.14062-0.94141-0.15234-1.4102-0.15234z"/>
  <path d="m39.012 68.191c0.55078 0.011719 1.1016 0.14062 1.6484 0 0.14062-0.03125 0.19922 0.1875 0.058594 0.23047-0.57031 0.12891-1.1406 0.011719-1.7109 0-0.14844 0-0.14844-0.23047 0.003907-0.23047z"/>
  <path d="m39.281 60.871c-0.14062-0.03125-0.078125-0.25 0.058594-0.21875 0.67188 0.14844 1.3203 0.27734 2 0.14844 0.14844-0.019531 0.21094 0.19922 0.058594 0.23047-0.71875 0.12891-1.4102 0-2.1172-0.16016z"/>
  <path d="m39.621 59.43c0.64844-0.058594 1.25 0.16016 1.8086 0.47266 0.12891 0.070312 0.011718 0.26953-0.12109 0.19922-0.51953-0.28906-1.0781-0.5-1.6914-0.4375-0.14844 0.007813-0.14844-0.22266 0.003906-0.23437z"/>
  <path d="m50.59 74.441c0.14844 0 0.14844 0.23047 0 0.23047h-1.0703c-0.14062 0-0.14062-0.23047 0-0.23047z"/>
  <path d="m50.82 74.059c-0.66016-0.011719-1.3203-0.078125-1.9805-0.078125-0.14844 0-0.14844-0.23047 0-0.23047 0.66016 0.011719 1.3203 0.070312 1.9805 0.078125 0.14063 0 0.14063 0.23047 0 0.23047z"/>
  <path d="m49.141 64.609c0.83984 0.078125 1.6797 0.21875 2.5195 0.30859 0.14062 0.011719 0.14062 0.23828 0 0.21875-0.83984-0.078125-1.6797-0.21875-2.5195-0.30078-0.14062-0.015626-0.15234-0.23438 0-0.22656z"/>
  <path d="m49.422 63.699c0.92969-0.21094 1.8516 0.070312 2.7188 0.37891 0.14062 0.050781 0.078125 0.26953-0.058594 0.21875-0.82812-0.30078-1.7109-0.57812-2.6016-0.37891-0.15234 0.03125-0.21094-0.1875-0.058594-0.21875z"/>
  <path d="m48.762 65.68c1.1719 0.070312 2.2695 0.16016 3.3984-0.23047 0.14062-0.050781 0.19922 0.17188 0.058594 0.21875-1.1484 0.39844-2.2695 0.32031-3.4609 0.23047-0.13672-0.007813-0.14844-0.22656 0.003907-0.21875z"/>
  <path d="m52.762 43.469c0-2.0391-1.1797-4.1016-0.52734-6.1211 0.050781-0.14062 0.26953-0.078125 0.21875 0.058594-0.64062 1.9883 0.53906 4.0391 0.53906 6.0586-0.003907 0.15625-0.23047 0.15625-0.23047 0.003906z"/>
  <path d="m59.73 63.699c-0.14844 0-0.14844-0.23047 0-0.23047 0.60156 0 1.2109 0 1.8008-0.14844 0.14062-0.039062 0.19922 0.17969 0.058594 0.21875-0.60938 0.16016-1.2383 0.16016-1.8594 0.16016z"/>
  <path d="m59.531 64.23c0.80078 0.14844 1.6094 0.12891 2.3789-0.14844 0.14062-0.050781 0.19922 0.17188 0.058594 0.21875-0.80859 0.30078-1.6602 0.3125-2.5 0.14844-0.14062-0.019531-0.078125-0.23828 0.0625-0.21875z"/>
  <path d="m59.141 63.102c1.0625-0.67969 2.3398-0.69922 3.5195-0.30859 0.12891 0.039062 0.070313 0.26172-0.0625 0.21875-1.1289-0.37109-2.3281-0.35938-3.3516 0.28906-0.11719 0.078125-0.22656-0.12109-0.10547-0.19922z"/>
  <path d="m62.672 71.551c0.14062-0.03125 0.21094 0.19141 0.0625 0.21875-0.42188 0.078125-0.85156 0.14844-1.2812 0.070313-0.14062-0.019532-0.078125-0.23828 0.058594-0.21875 0.38672 0.070312 0.77734 0 1.1602-0.070313z"/>
  <path d="m63.34 71.078c-0.82812 0.14062-1.6797 0.17188-2.5117 0.30859-0.14844 0.019531-0.21094-0.19922-0.0625-0.21875 0.82812-0.14062 1.6797-0.17188 2.5117-0.30859 0.15234-0.019531 0.21094 0.19922 0.0625 0.21875z"/>
  <path d="m87.309 50c0 20.609-16.699 37.309-37.309 37.309s-37.309-16.699-37.309-37.309c0-17.43 11.941-32.059 28.09-36.16-0.17188 0.94141-0.39062 1.8711-0.76172 2.8008-0.55859 1.3789-1.2188 2.75-1.6289 4.1914-0.85156 3-1.4688 6.0781-2.2305 9.1016-0.96094 3.7812-0.75 7.5703-1.1914 11.41-0.32031 2.7695-2.4805 8.7188 1.1797 10.109 0.83984 0.21875 1.8711 0.30078 2.2109 1.0781 0.35938-1.5195 0.5-3.0586 0.76953-4.6016 0.30859-1.7891 0.69141-3.5508 0.67969-5.3711 0-0.14844 0.23047-0.14844 0.23047 0 0 1.8594-0.39844 3.6016-0.69141 5.4414-0.26953 1.6797-0.42969 3.3711-0.87109 5.0195v0.050781c0.019532 0.80859-0.46875 1.6719-0.66016 2.4492-0.33984 1.3906-0.46875 2.8398-0.62109 4.2617-0.5 4.7383-1.7695 9.6289-0.87109 14.398 0.078125 0.44141 0.23047 0.87109 0.42969 1.2617 0.63672 2.0195 3.1016 1.3867 3.6914 0.85156 1.3398-1.0508 1.2695-2.7695 1.4297-4.3789 0.28125-2.7891 0.64062-5.5 1.2383-8.2383 0.60938-2.7812 1.0898-5.5117 1.3906-8.3281 0.10156-0.85938 0.19922-1.7109 0.42969-2.5195-0.019532-0.03125-0.03125-0.070313-0.011719-0.10938 0.51172-1.1797 0.55078-2.4805 0.89844-3.7109 0.03125-0.078124 0.12891-0.12109 0.19141-0.050781 1 1.1016 1.0703 2.8711 1.2617 4.2695 0.011718 0.070313-0.039063 0.10156-0.089844 0.10156 0.050781 0.48047 0.039062 0.96875 0.011718 1.4609-0.19141 2.6797-0.30078 5.3398-0.35156 8.0273-0.070312 3.1328-0.12891 6.25-0.26172 9.3828-0.10938 2.6406-0.39844 5.7891 0.5 8.3203 0.23047 0.62891 0.60156 1.4883 1.1719 2.0703 1.4297 2.0469 3.6328 0.10547 3.9414-0.60938 0.28906-0.44922 0.44922-1.0117 0.48047-1.6719 0.039063-0.91016-0.011719-1.8086-0.10156-2.7305-0.23047-2.2695 0.011719-4.3984 0.48047-6.6289 0.67187-3.1992 1.3594-6.5391 1.6211-9.8008 0.21094-2.7695-0.37109-5.4883-0.21875-8.25 0-0.011719 0.011719-0.019532 0.019531-0.039063-0.3125-1.1602-0.039062-2.4102 0.42969-3.4883 0.058594-0.14062 0.26172-0.019532 0.19922 0.10938-0.46094 1.0391-0.71094 2.2617-0.39844 3.3711 1.3008 0.75 1.7891 2.3398 2.0586 3.7383 0.53906 2.9219 0.57031 5.9102 1.1016 8.8281 0.51953 2.8906 1.1484 5.7383 1.8984 8.5781 0.42188 1.6289 0.64062 3.3398 1.1484 4.9492 0 0.019532 0.70313 3.2148 2.6992 2.4219 0.94141-0.375 1.8711-1.0703 2.0703-2.1289 0.67969-3.5781-0.078125-7.5117-0.80078-11.02-0.67969-3.3516-1.5391-6.7305-1.7109-10.16-0.17188-3.3008-0.26953-6.7188-1.2617-9.9102-0.30859-0.96875-0.92188-2.2695-0.51172-3.3203 0.51953-1.3711 1.3711-2.6094 1.6992-4.0586 0.76953-3.4414 0.39844-6.9219-0.16016-10.359-0.57812-3.5195-1.1914-7.0391-1.9297-10.531-0.39062-1.8516-0.61719-3.9688-1.2305-5.8789 15.871 4.2891 27.531 18.781 27.531 36z"/>
 </g>
</svg>
